# xmcd
#
# Track frame offsets:
#	150
#	21900
#	41660
#	62987
#	84788
#	111811
#	139118
#	163772
#	187581
#	217975
#
# Disc length: 3150 seconds
# Revision: 0
# Processed by: cddbd v1.5.2PL0 Copyright (c) Steve Scherf et al.
# Submitted via: cdrLabel 7.1
#
DISCID=7e0c4c0a
DTITLE=Justin Rutledge - Justin Rutledge - Devil on a Bench in Stanley Park
DTITLE=
DYEAR=2006
DGENRE=
TTITLE0=
TTITLE1=Robin's Tune 
TTITLE2=I'm Your Man, You're My Radio 
TTITLE3=Does It Make You Rain? 
TTITLE4=Come Summertime 
TTITLE5=Backseat Honeymoon/Blue Is What I Do 
TTITLE6=Suffering of Pepe O'Malley, Pt. 4 
TTITLE7=Emily Returns 
TTITLE8=I Am with Her Where the Avalanche Begins
TTITLE9=This Is War 
EXTD=
EXTT0=
EXTT1=
EXTT2=
EXTT3=
EXTT4=
EXTT5=
EXTT6=
EXTT7=
EXTT8=
EXTT9=
PLAYORDER=
